<svg id="Layer_3" fill="#fff" enable-background="new 0 0 64 64" viewBox="0 0 64 64" xmlns="http://www.w3.org/2000/svg"><path d="m48.059 39.741-6.944-2.137c2.277-1.96 3.921-4.632 4.572-7.674 2.429-.338 4.313-2.408 4.313-4.93 0-2.414-1.721-4.434-4-4.899v-5.101c0-7.72-6.28-14-14-14s-14 6.28-14 14v5.101c-2.279.465-4 2.484-4 4.899 0 2.522 1.884 4.592 4.314 4.931.651 3.042 2.295 5.714 4.572 7.674l-6.944 2.137c-2.957.908-4.942 3.597-4.942 6.69v15.568c0 .552.447 1 1 1h40c.553 0 1-.448 1-1v-15.568c0-3.093-1.985-5.782-4.941-6.691zm-28.059-24.741c0-.075.01-.147.011-.222l2.38-.595c6.279-1.57 12.938-1.57 19.217 0l2.38.595c.002.075.012.147.012.222v.382l-3.077 1.539-2.761-.921c-3.98-1.327-8.344-1.327-12.324 0l-2.761.92-3.077-1.538zm12-5c-1.103 0-2-.897-2-2s.897-2 2-2 2 .897 2 2-.897 2-2 2zm16 15c0 1.317-.859 2.427-2.042 2.829.016-.276.042-.549.042-.829v-4.816c1.161.414 2 1.514 2 2.816zm-16-22c5.817 0 10.676 4.161 11.768 9.661l-1.675-.419c-2.482-.621-5.021-1.007-7.574-1.161.896-.733 1.481-1.834 1.481-3.081 0-2.206-1.794-4-4-4s-4 1.794-4 4c0 1.247.585 2.348 1.482 3.082-2.553.153-5.093.54-7.574 1.161l-1.675.419c1.091-5.501 5.95-9.662 11.767-9.662zm-16 22c0-1.302.839-2.402 2-2.816v4.816c0 .28.026.553.042.829-1.183-.402-2.042-1.512-2.042-2.829zm4 2v-9.382l2.553 1.276c.238.119.51.139.764.054l3.154-1.051c3.572-1.191 7.486-1.191 11.059 0l3.154 1.051c.103.035.21.052.316.052.153 0 .307-.036.447-.105l2.553-1.277v9.382c0 6.617-5.383 12-12 12s-12-5.383-12-12zm17.652 12.798c-.725 1.868-2.531 3.202-4.652 3.202h-2c-2.121 0-3.927-1.334-4.652-3.202 1.731.767 3.64 1.202 5.652 1.202s3.921-.435 5.652-1.202zm-21.123 1.854 7.599-2.338c.617 3.233 3.462 5.686 6.872 5.686h2c3.41 0 6.255-2.453 6.872-5.686l7.599 2.338c2.111.65 3.529 2.571 3.529 4.78v7.568h-5v-5h-2v12h-24v-12h-2v5h-5v-7.568c0-2.209 1.418-4.13 3.529-4.78zm-3.529 14.348h5v5h-5zm33 5v-5h5v5z"/></svg>